<?xml version="1.0" standalone="no"?>
<!DOCTYPE svg PUBLIC "-//W3C//DTD SVG 20010904//EN"
 "http://www.w3.org/TR/2001/REC-SVG-20010904/DTD/svg10.dtd">
<svg version="1.0" xmlns="http://www.w3.org/2000/svg"
 width="1920.000000pt" height="1920.000000pt" viewBox="0 0 1920.000000 1920.000000"
 preserveAspectRatio="xMidYMid meet">
<metadata>
Created by potrace 1.14, written by Peter Selinger 2001-2017
</metadata>
<g transform="translate(0.000000,1920.000000) scale(0.100000,-0.100000)"
fill="#000000" stroke="none">
<path d="M9288 16225 c-2 -1 -43 -6 -93 -10 -49 -4 -101 -8 -115 -10 -14 -2
-54 -6 -90 -10 -36 -4 -72 -9 -81 -10 -9 -2 -40 -6 -70 -10 -30 -3 -61 -8 -69
-10 -8 -2 -31 -7 -50 -10 -19 -3 -48 -8 -65 -11 -24 -4 -104 -21 -275 -59 -94
-20 -333 -92 -475 -141 -327 -115 -783 -333 -992 -476 -23 -15 -44 -28 -47
-28 -14 0 -365 -248 -441 -311 -11 -9 -62 -52 -114 -94 -216 -179 -461 -425
-652 -655 -160 -193 -361 -476 -463 -651 -78 -133 -138 -245 -203 -379 -42
-85 -77 -156 -77 -157 -2 -3 -51 -10 -115 -18 -30 -4 -62 -8 -71 -10 -9 -2
-41 -6 -71 -10 -61 -7 -332 -60 -394 -76 -22 -6 -47 -12 -55 -14 -46 -10 -228
-61 -324 -92 -503 -161 -960 -391 -1416 -710 -30 -21 -57 -40 -60 -43 -3 -3
-23 -18 -45 -35 -53 -39 -199 -157 -279 -225 -117 -99 -367 -347 -466 -460
-30 -35 -60 -68 -66 -74 -52 -55 -236 -296 -354 -465 -157 -224 -365 -607
-485 -895 -110 -267 -236 -664 -281 -889 -4 -21 -33 -174 -39 -207 -3 -17 -14
-90 -21 -135 -2 -16 -6 -41 -9 -55 -2 -14 -7 -54 -11 -90 -3 -36 -8 -76 -10
-90 -29 -222 -26 -776 6 -1075 9 -91 13 -118 31 -235 6 -36 12 -76 14 -90 2
-14 14 -72 26 -130 11 -58 24 -116 26 -130 24 -114 110 -419 144 -504 10 -27
19 -55 19 -62 0 -8 4 -22 10 -32 5 -9 35 -82 66 -162 109 -281 313 -670 493
-940 452 -677 1063 -1239 1786 -1645 78 -44 332 -169 415 -205 41 -18 93 -40
115 -50 22 -10 67 -28 100 -40 182 -66 314 -112 345 -120 19 -4 85 -23 145
-40 61 -18 120 -34 133 -36 12 -3 59 -13 105 -24 87 -20 92 -21 232 -45 50 -9
104 -19 120 -22 17 -3 41 -6 55 -8 14 -1 70 -8 125 -14 166 -19 175 -20 315
-27 362 -19 481 -4 680 84 130 58 247 156 421 352 36 41 108 122 159 180 50
58 107 121 124 140 18 19 302 339 631 710 330 371 614 691 632 710 17 19 41
46 53 60 12 14 50 57 84 95 68 76 282 317 386 435 36 40 70 78 75 84 6 6 68
76 139 156 71 80 161 180 200 223 38 43 79 88 89 100 21 25 127 145 142 161 6
6 44 49 85 96 41 46 84 94 95 106 11 11 47 52 80 90 33 38 80 91 105 119 25
27 50 54 55 61 6 6 39 44 75 84 126 144 211 239 315 354 6 6 43 50 84 96 41
47 85 96 98 110 13 14 33 37 46 51 12 14 54 61 92 104 39 43 90 102 115 130
116 131 187 210 205 229 11 12 67 75 125 141 57 66 121 138 141 160 20 22 60
67 89 100 29 33 83 94 120 135 37 41 82 93 101 114 19 22 43 49 54 61 23 24
13 13 325 365 129 146 251 283 270 304 19 21 40 44 45 50 6 6 64 72 130 146
66 74 124 140 130 146 5 6 39 44 75 84 135 153 254 287 355 400 28 31 79 89
115 129 36 41 70 79 76 85 5 6 50 56 98 111 81 92 207 233 231 259 6 6 44 49
84 96 41 47 80 90 85 95 6 6 40 44 76 85 36 41 72 82 80 90 8 9 40 45 71 81
61 69 94 106 138 154 30 33 160 179 262 295 145 164 253 285 258 290 3 3 33
36 66 75 33 38 67 76 75 85 8 9 47 51 85 95 39 43 79 88 90 101 11 12 47 53
80 90 33 38 75 84 93 103 17 19 32 41 32 49 0 26 -96 292 -160 442 -127 298
-274 571 -453 840 -65 98 -254 359 -268 370 -3 3 -30 34 -60 70 -29 36 -58 70
-64 76 -5 6 -35 39 -65 74 -70 81 -273 284 -376 377 -722 651 -1610 1085
-2554 1247 -176 31 -252 40 -475 63 -62 6 -721 14 -727 8z m607 -1969 c28 -3
73 -8 100 -11 111 -13 336 -58 451 -90 457 -129 850 -338 1220 -650 102 -86
326 -318 412 -428 l82 -105 -38 -38 c-20 -22 -69 -75 -107 -118 -39 -44 -88
-100 -111 -125 -22 -25 -97 -109 -165 -186 -68 -77 -128 -145 -134 -151 -5 -6
-23 -26 -40 -45 -67 -76 -181 -204 -190 -215 -5 -6 -41 -46 -80 -89 -38 -43
-75 -83 -80 -89 -6 -6 -58 -65 -115 -131 -58 -66 -108 -122 -111 -125 -3 -3
-47 -52 -98 -110 -52 -58 -123 -138 -160 -179 -36 -41 -74 -83 -84 -95 -10
-12 -30 -34 -45 -51 -15 -16 -65 -73 -111 -125 -69 -78 -177 -200 -226 -254
-5 -6 -46 -52 -90 -101 -44 -50 -82 -92 -85 -95 -3 -3 -34 -39 -70 -80 -36
-41 -72 -82 -80 -90 -15 -15 -46 -50 -155 -174 -33 -38 -69 -78 -80 -90 -11
-12 -49 -55 -85 -96 -36 -40 -78 -88 -95 -106 -16 -17 -41 -45 -55 -60 -25
-30 -402 -454 -456 -514 -17 -19 -87 -98 -155 -175 -68 -77 -126 -142 -129
-145 -3 -3 -75 -84 -159 -180 -85 -96 -164 -184 -175 -196 -12 -12 -34 -36
-51 -55 -104 -119 -250 -285 -255 -289 -3 -3 -41 -45 -85 -95 -44 -49 -82 -92
-85 -95 -3 -3 -39 -43 -80 -90 -89 -100 -119 -135 -191 -215 -29 -33 -65 -73
-80 -90 -14 -16 -102 -115 -195 -220 -93 -104 -181 -203 -195 -220 -43 -48
-222 -249 -234 -261 -5 -6 -35 -39 -65 -74 -30 -35 -73 -84 -96 -109 -23 -25
-83 -93 -134 -151 -51 -58 -109 -123 -130 -145 -20 -22 -56 -62 -80 -90 -24
-27 -73 -84 -110 -125 -37 -41 -148 -165 -245 -275 -98 -110 -196 -221 -219
-246 -22 -25 -70 -78 -106 -119 -36 -41 -90 -102 -120 -135 -30 -34 -84 -95
-120 -135 -128 -146 -198 -224 -252 -282 -15 -15 -36 -40 -48 -55 -12 -15 -50
-59 -85 -97 -35 -39 -74 -84 -88 -99 -23 -28 -26 -28 -83 -21 -32 4 -61 8 -64
9 -3 1 -25 5 -50 9 -311 54 -734 215 -1026 392 -95 57 -294 193 -314 214 -3 3
-25 21 -50 40 -120 93 -351 322 -468 468 -347 428 -579 941 -667 1477 -32 196
-39 285 -39 505 0 174 7 328 20 407 11 72 14 91 20 138 3 28 8 53 10 56 2 4 6
24 10 45 8 58 70 290 94 359 12 33 23 67 25 75 10 42 104 259 156 360 174 339
340 565 613 835 404 399 891 673 1436 810 169 42 259 60 359 71 30 3 64 8 75
10 31 6 249 18 341 18 86 0 308 -12 365 -19 19 -3 55 -7 80 -10 25 -3 52 -8
60 -10 8 -2 31 -6 50 -9 85 -13 274 -59 420 -103 13 -3 15 9 16 69 1 71 12
253 18 286 2 9 7 44 11 77 4 32 9 68 11 80 2 11 7 34 9 50 3 17 8 37 10 45 2
8 6 32 10 54 3 21 7 41 10 45 2 4 6 18 8 32 3 13 10 44 17 69 7 25 13 52 15
60 2 8 22 71 45 140 106 312 267 620 465 885 136 183 385 440 555 574 58 45
113 89 122 96 29 24 210 140 283 182 278 161 599 284 915 351 94 20 127 26
205 37 78 11 101 14 165 20 36 4 66 8 68 9 5 5 468 -2 517 -8z"/>
<path d="M16208 12488 c-35 -39 -70 -79 -78 -88 -8 -9 -49 -54 -89 -101 -41
-46 -89 -100 -107 -119 -31 -33 -167 -187 -263 -295 -23 -28 -73 -84 -111
-125 -37 -41 -89 -100 -116 -130 -27 -31 -78 -89 -114 -129 -36 -41 -73 -83
-82 -93 -9 -11 -46 -52 -81 -92 -35 -39 -106 -118 -157 -176 l-93 -104 49 -20
c70 -28 351 -170 404 -204 155 -99 203 -132 270 -181 390 -288 720 -681 940
-1121 23 -47 48 -96 55 -110 58 -113 184 -492 210 -630 3 -14 7 -36 10 -50 8
-38 33 -190 39 -235 27 -203 28 -608 1 -789 -3 -17 -7 -47 -9 -66 -13 -96 -52
-282 -86 -404 -22 -84 -100 -309 -124 -361 -63 -136 -126 -263 -164 -330 -324
-572 -799 -1016 -1395 -1304 -177 -85 -429 -180 -552 -207 -5 -1 -28 -6 -50
-12 -85 -23 -236 -51 -365 -68 -192 -26 -710 -25 -810 1 -8 2 -35 6 -60 9
-139 18 -330 63 -495 116 -571 184 -1071 521 -1465 986 -94 111 -331 458 -353
517 -6 16 18 43 -537 -583 -271 -305 -523 -589 -560 -630 -195 -218 -260 -293
-260 -300 0 -7 72 -103 153 -205 231 -289 577 -625 877 -850 36 -27 67 -52 70
-55 3 -3 25 -19 50 -35 25 -16 47 -32 50 -35 22 -22 318 -210 330 -210 6 0 10
-5 10 -12 0 -6 3 -8 7 -5 3 4 13 1 22 -7 51 -44 419 -225 631 -311 63 -25 124
-50 135 -55 11 -5 31 -12 45 -15 14 -4 39 -13 55 -21 27 -11 194 -64 345 -108
82 -24 221 -56 350 -81 41 -8 86 -17 100 -20 26 -5 95 -16 120 -20 37 -5 126
-18 140 -20 8 -2 51 -6 95 -10 44 -4 94 -9 110 -11 304 -29 813 -20 1085 21
14 2 48 6 75 10 28 3 66 8 85 11 34 5 276 52 315 60 11 3 31 7 45 10 104 21
514 143 585 174 11 5 85 34 165 65 310 122 790 381 1010 545 19 15 87 65 150
112 306 226 658 561 880 837 19 24 40 49 47 56 7 7 54 69 106 138 416 553 719
1190 881 1855 19 78 38 161 41 184 4 24 8 45 10 49 2 3 6 19 9 35 2 16 8 49
12 74 5 25 9 50 10 55 1 11 14 97 20 135 2 14 6 52 10 85 3 33 7 71 9 84 26
165 27 868 1 1031 -2 14 -7 52 -11 85 -14 129 -16 137 -40 282 -11 67 -60 301
-69 331 -3 9 -8 32 -11 51 -3 19 -8 38 -11 43 -3 5 -7 20 -10 34 -13 73 -138
443 -195 579 -7 17 -13 32 -14 35 -27 81 -196 429 -275 565 -27 47 -50 91 -50
96 0 5 -4 9 -10 9 -5 0 -10 4 -10 10 0 12 -122 204 -132 208 -5 2 -8 8 -8 12
0 19 -182 265 -318 428 -320 387 -716 739 -1137 1012 -171 111 -167 109 -190
119 -11 5 -37 20 -57 34 l-37 26 -63 -71z"/>
</g>
</svg>
